<!DOCTYPE svg PUBLIC "-//W3C//DTD SVG 1.1//EN" "http://www.w3.org/Graphics/SVG/1.1/DTD/svg11.dtd">
<!-- Uploaded to: SVG Repo, www.svgrepo.com, Transformed by: SVG Repo Mixer Tools -->
<svg fill="#532c00" height="800px" width="800px" version="1.1" id="Capa_1" xmlns="http://www.w3.org/2000/svg" xmlns:xlink="http://www.w3.org/1999/xlink" viewBox="0 0 297 297" xml:space="preserve">
<g id="SVGRepo_bgCarrier" stroke-width="0"/>
<g id="SVGRepo_tracerCarrier" stroke-linecap="round" stroke-linejoin="round"/>
<g id="SVGRepo_iconCarrier"> <g> <circle cx="148.917" cy="193.884" r="13.753"/> <path d="M268.745,117.132c3.775-3.93,4.838-9.734,2.702-14.746c-2.136-5.013-7.059-8.266-12.507-8.266h-96.434v-27.19h69.021 c7.508,0,13.595-6.087,13.595-13.595V27.19h13.595c7.508,0,13.595-6.087,13.595-13.595S266.226,0,258.718,0h-55.426 c-7.508,0-13.595,6.087-13.595,13.595s6.087,13.595,13.595,13.595h14.641v12.549h-69.021c-7.508,0-13.595,6.087-13.595,13.595 V94.12H38.059c-5.496,0-10.452,3.309-12.557,8.386s-0.949,10.921,2.934,14.812l37.859,37.943v82.703l-12.878,41.402 c-1.284,4.127-0.529,8.618,2.033,12.098c2.562,3.48,6.626,5.535,10.948,5.535h165.035h0.015c7.513,0,13.6-6.087,13.6-13.595 c0-1.773-0.339-3.465-0.956-5.018l-13.611-41.191v-80.222L268.745,117.132z M93.485,226.933v-62.746h109.806v62.746H93.485z M227.034,121.31l-15.065,15.687H86.482L70.83,121.31H227.034z M84.865,269.809l4.553-14.641h118.366l4.838,14.641H84.865z"/> </g> </g>
</svg>