<svg xmlns="http://www.w3.org/2000/svg" version="1.1" xmlns:xlink="http://www.w3.org/1999/xlink" xmlns:svgjs="http://svgjs.dev/svgjs" width="1440" height="560" preserveAspectRatio="none" viewBox="0 0 1440 560"><g mask="url(&quot;#SvgjsMask1645&quot;)" fill="none"><rect width="1440" height="560" x="0" y="0" fill="rgba(21, 13, 0, 1)"></rect><use xlink:href="#SvgjsG1647" transform="translate(0, 0)" fill="rgba(255, 191, 118, 0.17)"></use><use xlink:href="#SvgjsG1647" transform="translate(840, 0)" fill="rgba(255, 191, 118, 0.17)"></use></g><defs><mask id="SvgjsMask1645"><rect width="1440" height="560" fill="#ffffff"></rect></mask><g id="SvgjsG1646"><path d="M15.065 12.151H0.02c0 1.333 1.015 1.95 1.83 1.95h11.386c0.975 0 1.83-0.767 1.829-1.951zM12.853 2.166H1.869v7.208c0 0.976 0.843 1.75 1.755 1.75h7.121c1.031 0 1.731-0.863 1.731-1.749V8.773c2.031 0 3.505-1.527 3.505-3.303 0-1.815-1.445-3.303-3.126-3.303z m1.832 3.305c0 1.036-0.763 2.025-2.21 1.931V3.519l0.378 0 0 0.001c1.391 0 1.837 1.318 1.832 1.952v-0.001z"></path></g><g id="SvgjsG1647"><use xlink:href="#SvgjsG1646" transform="translate(0, 0) scale(3)" fill="rgba(255, 191, 118, 0.17)"></use><use xlink:href="#SvgjsG1646" transform="translate(0, 84) scale(3)" fill="rgba(255, 191, 118, 0.17)"></use><use xlink:href="#SvgjsG1646" transform="translate(0, 168) scale(3)" fill="rgba(255, 191, 118, 0.17)"></use><use xlink:href="#SvgjsG1646" transform="translate(0, 252) scale(3)" fill="rgba(255, 191, 118, 0.17)"></use><use xlink:href="#SvgjsG1646" transform="translate(0, 336) scale(3)" fill="rgba(255, 191, 118, 0.17)"></use><use xlink:href="#SvgjsG1646" transform="translate(0, 420) scale(3)" fill="rgba(255, 191, 118, 0.17)"></use><use xlink:href="#SvgjsG1646" transform="translate(0, 504) scale(3)" fill="rgba(255, 191, 118, 0.17)"></use><use xlink:href="#SvgjsG1646" transform="translate(84, 0) scale(3)" fill="rgba(255, 191, 118, 0.17)"></use><use xlink:href="#SvgjsG1646" transform="translate(84, 84) scale(3)" fill="rgba(255, 191, 118, 0.17)"></use><use xlink:href="#SvgjsG1646" transform="translate(84, 168) scale(3)" fill="rgba(255, 191, 118, 0.17)"></use><use xlink:href="#SvgjsG1646" transform="translate(84, 252) scale(3)" fill="rgba(255, 191, 118, 0.17)"></use><use xlink:href="#SvgjsG1646" transform="translate(84, 336) scale(3)" fill="rgba(255, 191, 118, 0.17)"></use><use xlink:href="#SvgjsG1646" transform="translate(84, 420) scale(3)" fill="rgba(255, 191, 118, 0.17)"></use><use xlink:href="#SvgjsG1646" transform="translate(84, 504) scale(3)" fill="rgba(255, 191, 118, 0.17)"></use><use xlink:href="#SvgjsG1646" transform="translate(168, 0) scale(3)" fill="rgba(255, 191, 118, 0.17)"></use><use xlink:href="#SvgjsG1646" transform="translate(168, 84) scale(3)" fill="rgba(255, 191, 118, 0.17)"></use><use xlink:href="#SvgjsG1646" transform="translate(168, 168) scale(3)" fill="rgba(255, 191, 118, 0.17)"></use><use xlink:href="#SvgjsG1646" transform="translate(168, 252) scale(3)" fill="rgba(255, 191, 118, 0.17)"></use><use xlink:href="#SvgjsG1646" transform="translate(168, 336) scale(3)" fill="rgba(255, 191, 118, 0.17)"></use><use xlink:href="#SvgjsG1646" transform="translate(168, 420) scale(3)" fill="rgba(255, 191, 118, 0.17)"></use><use xlink:href="#SvgjsG1646" transform="translate(168, 504) scale(3)" fill="rgba(255, 191, 118, 0.17)"></use><use xlink:href="#SvgjsG1646" transform="translate(252, 0) scale(3)" fill="rgba(255, 191, 118, 0.17)"></use><use xlink:href="#SvgjsG1646" transform="translate(252, 84) scale(3)" fill="rgba(255, 191, 118, 0.17)"></use><use xlink:href="#SvgjsG1646" transform="translate(252, 168) scale(3)" fill="rgba(255, 191, 118, 0.17)"></use><use xlink:href="#SvgjsG1646" transform="translate(252, 252) scale(3)" fill="rgba(255, 191, 118, 0.17)"></use><use xlink:href="#SvgjsG1646" transform="translate(252, 336) scale(3)" fill="rgba(255, 191, 118, 0.17)"></use><use xlink:href="#SvgjsG1646" transform="translate(252, 420) scale(3)" fill="rgba(255, 191, 118, 0.17)"></use><use xlink:href="#SvgjsG1646" transform="translate(252, 504) scale(3)" fill="rgba(255, 191, 118, 0.17)"></use><use xlink:href="#SvgjsG1646" transform="translate(336, 0) scale(3)" fill="rgba(255, 191, 118, 0.17)"></use><use xlink:href="#SvgjsG1646" transform="translate(336, 84) scale(3)" fill="rgba(255, 191, 118, 0.17)"></use><use xlink:href="#SvgjsG1646" transform="translate(336, 168) scale(3)" fill="rgba(255, 191, 118, 0.17)"></use><use xlink:href="#SvgjsG1646" transform="translate(336, 252) scale(3)" fill="rgba(255, 191, 118, 0.17)"></use><use xlink:href="#SvgjsG1646" transform="translate(336, 336) scale(3)" fill="rgba(255, 191, 118, 0.17)"></use><use xlink:href="#SvgjsG1646" transform="translate(336, 420) scale(3)" fill="rgba(255, 191, 118, 0.17)"></use><use xlink:href="#SvgjsG1646" transform="translate(336, 504) scale(3)" fill="rgba(255, 191, 118, 0.17)"></use><use xlink:href="#SvgjsG1646" transform="translate(420, 0) scale(3)" fill="rgba(255, 191, 118, 0.17)"></use><use xlink:href="#SvgjsG1646" transform="translate(420, 84) scale(3)" fill="rgba(255, 191, 118, 0.17)"></use><use xlink:href="#SvgjsG1646" transform="translate(420, 168) scale(3)" fill="rgba(255, 191, 118, 0.17)"></use><use xlink:href="#SvgjsG1646" transform="translate(420, 252) scale(3)" fill="rgba(255, 191, 118, 0.17)"></use><use xlink:href="#SvgjsG1646" transform="translate(420, 336) scale(3)" fill="rgba(255, 191, 118, 0.17)"></use><use xlink:href="#SvgjsG1646" transform="translate(420, 420) scale(3)" fill="rgba(255, 191, 118, 0.17)"></use><use xlink:href="#SvgjsG1646" transform="translate(420, 504) scale(3)" fill="rgba(255, 191, 118, 0.17)"></use><use xlink:href="#SvgjsG1646" transform="translate(504, 0) scale(3)" fill="rgba(255, 191, 118, 0.17)"></use><use xlink:href="#SvgjsG1646" transform="translate(504, 84) scale(3)" fill="rgba(255, 191, 118, 0.17)"></use><use xlink:href="#SvgjsG1646" transform="translate(504, 168) scale(3)" fill="rgba(255, 191, 118, 0.17)"></use><use xlink:href="#SvgjsG1646" transform="translate(504, 252) scale(3)" fill="rgba(255, 191, 118, 0.17)"></use><use xlink:href="#SvgjsG1646" transform="translate(504, 336) scale(3)" fill="rgba(255, 191, 118, 0.17)"></use><use xlink:href="#SvgjsG1646" transform="translate(504, 420) scale(3)" fill="rgba(255, 191, 118, 0.17)"></use><use xlink:href="#SvgjsG1646" transform="translate(504, 504) scale(3)" fill="rgba(255, 191, 118, 0.17)"></use><use xlink:href="#SvgjsG1646" transform="translate(588, 0) scale(3)" fill="rgba(255, 191, 118, 0.17)"></use><use xlink:href="#SvgjsG1646" transform="translate(588, 84) scale(3)" fill="rgba(255, 191, 118, 0.17)"></use><use xlink:href="#SvgjsG1646" transform="translate(588, 168) scale(3)" fill="rgba(255, 191, 118, 0.17)"></use><use xlink:href="#SvgjsG1646" transform="translate(588, 252) scale(3)" fill="rgba(255, 191, 118, 0.17)"></use><use xlink:href="#SvgjsG1646" transform="translate(588, 336) scale(3)" fill="rgba(255, 191, 118, 0.17)"></use><use xlink:href="#SvgjsG1646" transform="translate(588, 420) scale(3)" fill="rgba(255, 191, 118, 0.17)"></use><use xlink:href="#SvgjsG1646" transform="translate(588, 504) scale(3)" fill="rgba(255, 191, 118, 0.17)"></use><use xlink:href="#SvgjsG1646" transform="translate(672, 0) scale(3)" fill="rgba(255, 191, 118, 0.17)"></use><use xlink:href="#SvgjsG1646" transform="translate(672, 84) scale(3)" fill="rgba(255, 191, 118, 0.17)"></use><use xlink:href="#SvgjsG1646" transform="translate(672, 168) scale(3)" fill="rgba(255, 191, 118, 0.17)"></use><use xlink:href="#SvgjsG1646" transform="translate(672, 252) scale(3)" fill="rgba(255, 191, 118, 0.17)"></use><use xlink:href="#SvgjsG1646" transform="translate(672, 336) scale(3)" fill="rgba(255, 191, 118, 0.17)"></use><use xlink:href="#SvgjsG1646" transform="translate(672, 420) scale(3)" fill="rgba(255, 191, 118, 0.17)"></use><use xlink:href="#SvgjsG1646" transform="translate(672, 504) scale(3)" fill="rgba(255, 191, 118, 0.17)"></use><use xlink:href="#SvgjsG1646" transform="translate(756, 0) scale(3)" fill="rgba(255, 191, 118, 0.17)"></use><use xlink:href="#SvgjsG1646" transform="translate(756, 84) scale(3)" fill="rgba(255, 191, 118, 0.17)"></use><use xlink:href="#SvgjsG1646" transform="translate(756, 168) scale(3)" fill="rgba(255, 191, 118, 0.17)"></use><use xlink:href="#SvgjsG1646" transform="translate(756, 252) scale(3)" fill="rgba(255, 191, 118, 0.17)"></use><use xlink:href="#SvgjsG1646" transform="translate(756, 336) scale(3)" fill="rgba(255, 191, 118, 0.17)"></use><use xlink:href="#SvgjsG1646" transform="translate(756, 420) scale(3)" fill="rgba(255, 191, 118, 0.17)"></use><use xlink:href="#SvgjsG1646" transform="translate(756, 504) scale(3)" fill="rgba(255, 191, 118, 0.17)"></use></g></defs></svg>